# xmcd
#
# Track frame offsets:
#	150
#	18320
#	35270
#	51357
#	69100
#	84815
#	97727
#	114250
#	129497
#	146705
#	162977
#	178355
#	192934
#	207632
#	223870
#	237970
#	252090
#	267342
#	281155
#	295795
#	313095
#
# Disc length: 4471 seconds
#
# Revision: 1
# Processed by: cddbd v1.5.2PL0 Copyright (c) Steve Scherf et al.
# Submitted via: audiograbber 1.83.01
#
DISCID=36117515
DTITLE=Verschiedene - Schlager - Die Hits Des Jahres 1998
DYEAR=1998
DGENRE=Schlager
TTITLE0=Michelle - Und Wir Wollten Doch Mal Fliegen
TTITLE1=Howard Carpendale - Mit Dir Verschwend Ich Meine Zeit
TTITLE2=Kristina Bach - ... Es Kribbelt Und Es Prickelt
TTITLE3=Roland Kaiser - So Bist Du
TTITLE4=Bernhard Brink and Aundrey Landers - Heute Habe Ich An Dich Gedacht
TTITLE5=Olaf Berger - Samba Del Amor
TTITLE6=André Stade - Es Muss Ja Für Immer Sein
TTITLE7=Nadine Norell and Francesco Napoli - Mein Herz Spielt Verrückt
TTITLE8=Oliver Frank - Italienische Sehnsucht
TTITLE9=Jeannine - Tanz  Mit Mir
TTITLE10=Ibo - Ein Himmelbett Im Internet
TTITLE11=Bernd Clüver - Gut Gut Gut
TTITLE12=Rendezvous - Auf Meinem Kissen
TTITLE13=Peter Rafael - Viva L´ Amor
TTITLE14=Rosanna Rocci - Alles Okay 
TTITLE15=Brunner and Brunner - Es Ist Diese Sehnsucht Nach Dir
TTITLE16=Engelbert - Something´s Breaking
TTITLE17=Oliver Haidt - Ich Denk An Rhodos
TTITLE18=Petra Frey - Küß Mich - Lieb Mich - Halt Mich
TTITLE19=Wolfgang Petry - Auf Den Mond Schiessen (Hinterherfliegen)
TTITLE20=Claudia Jung - Party Mix
EXTD=
EXTT0=
EXTT1=
EXTT2=
EXTT3=
EXTT4=
EXTT5=
EXTT6=
EXTT7=
EXTT8=
EXTT9=
EXTT10=
EXTT11=
EXTT12=
EXTT13=
EXTT14=
EXTT15=
EXTT16=
EXTT17=
EXTT18=
EXTT19=
EXTT20=
PLAYORDER=
